<svg width="50" height="50" viewBox="0 0 50 50" fill="none" xmlns="http://www.w3.org/2000/svg">
<path d="M48 25C48 37.7025 37.7025 48 25 48C12.2975 48 2 37.7025 2 25C2 12.2975 12.2975 2 25 2C37.7025 2 48 12.2975 48 25Z" fill="white" stroke="#CF088C" stroke-width="4"/>
<path d="M19.0001 20C19.0001 21.6569 17.657 23 16.0001 23C14.3433 23 13.0001 21.6569 13.0001 20C13.0001 18.3431 14.3433 17 16.0001 17C17.657 17 19.0001 18.3431 19.0001 20Z" stroke="#CF088C" stroke-width="4"/>
<g filter="url(#filter0_d_64_9)">
<path d="M16.0001 35C18.3608 38.0185 25.2657 42.2444 34.0001 35" stroke="#CF088C" stroke-width="4" stroke-linecap="round"/>
</g>
<path d="M29.0001 23H37.0001" stroke="#CF088C" stroke-width="4" stroke-linecap="round"/>
<path d="M29.0001 22L36.7944 17.5" stroke="#CF088C" stroke-width="4" stroke-linecap="round"/>
<defs>
<filter id="filter0_d_64_9" x="10" y="32.9999" width="30.0001" height="16.0004" filterUnits="userSpaceOnUse" color-interpolation-filters="sRGB">
<feFlood flood-opacity="0" result="BackgroundImageFix"/>
<feColorMatrix in="SourceAlpha" type="matrix" values="0 0 0 0 0 0 0 0 0 0 0 0 0 0 0 0 0 0 127 0" result="hardAlpha"/>
<feOffset dy="4"/>
<feGaussianBlur stdDeviation="2"/>
<feComposite in2="hardAlpha" operator="out"/>
<feColorMatrix type="matrix" values="0 0 0 0 0 0 0 0 0 0 0 0 0 0 0 0 0 0 0.25 0"/>
<feBlend mode="normal" in2="BackgroundImageFix" result="effect1_dropShadow_64_9"/>
<feBlend mode="normal" in="SourceGraphic" in2="effect1_dropShadow_64_9" result="shape"/>
</filter>
</defs>
</svg>
